<svg id="b" xmlns="http://www.w3.org/2000/svg" viewBox="0 0 139.71 160.56"><g id="c"><path d="m139.35,120.46s.02-.03.03-.04c.04-.07.07-.13.09-.2-.04.08-.08.16-.12.24Z" fill="#0f172a"/><path d="m138.46,39.23L71.1.34c-.37-.22-.8-.34-1.25-.34s-.88.12-1.25.34L1.25,39.23c-.78.44-1.25,1.27-1.25,2.16v77.78s0,.09.01.14c.01.12.02.23.04.35.03.16.08.32.14.47.04.1.09.2.14.29.08.14.18.28.3.4.02.04.06.08.1.11.04.04.08.08.13.12.12.11.25.2.39.28l67.35,38.89c.39.23.82.34,1.25.34s.87-.11,1.25-.34l67.36-38.89c.09-.05.18-.11.27-.18.09-.07.17-.14.25-.22.08-.07.15-.15.21-.24.06-.07.11-.15.16-.23.04-.08.08-.16.12-.24.07-.13.12-.26.15-.4.03-.08.04-.17.06-.26.02-.13.03-.26.03-.39V41.39c0-.89-.48-1.72-1.25-2.16ZM69.85,7.5l21.67,37.53c-6.31-3.89-13.73-6.14-21.67-6.14s-15.35,2.24-21.66,6.13L69.85,7.5Zm36.39,72.78c0,20.06-16.32,36.39-36.39,36.39s-36.39-16.33-36.39-36.39c0-6.59,1.76-12.77,4.83-18.1,6.29-10.92,18.08-18.29,31.56-18.29,20.07,0,36.39,16.32,36.39,36.39ZM5,42.83L63.02,9.33l-29.07,50.36L5,109.83V42.83Zm23.47,36.35c-.01.37-.01.73-.01,1.1,0,15.69,8.78,29.37,21.68,36.39H6.83l21.64-37.49Zm41.38,75.99L11.82,121.67h116.06l-58.03,33.5Zm19.71-38.5c12.9-7.02,21.68-20.7,21.68-36.39,0-.37,0-.74-.01-1.11l21.65,37.5h-43.32Zm45.15-6.84L76.69,9.34l58.02,33.49v67Z" fill="#0f172a"/></g></svg>